<?xml version="1.0" encoding="utf-8"?>
<svg viewBox="0 0 500 500" xmlns="http://www.w3.org/2000/svg">
  <defs>
    <path id="path-0" d="M 168.831 232.864 C 174.548 212.43 180.195 197.989 180.195 188.222 C 184.332 186.598 188.756 184.975 192.37 184.975 C 201 182.369 208.342 180.916 216.721 180.916 C 221.717 180.916 228.06 180.08 230.519 182.54 C 235.249 183.351 235.541 190.149 237.013 193.092 C 237.013 198.012 241.071 202.433 241.071 206.079 C 241.071 210.001 244.48 216.143 245.942 219.066 C 246.753 223.002 248.377 226.068 248.377 229.618 C 248.377 233.676 248.377 236.923 248.377 240.17 C 246.02 243.338 245.13 246.511 245.13 249.91 C 245.13 258.249 240.259 261.071 234.578 265.332 C 229.719 270.19 229.217 272.637 224.026 272.637 C 216.773 273.449 213.786 277.507 208.604 277.507 C 203.335 277.507 197.903 276.696 193.994 276.696 C 189.709 274.959 182.768 273.587 180.195 271.014 C 175.606 271.014 171.763 263.079 170.455 260.462 C 169.643 255.904 168.019 252.683 168.019 249.098 C 168.019 244.35 165.584 240.798 165.584 236.923 C 165.584 232.594 165.584 229.076 165.584 225.559 L 165.584 224.747 L 166.396 223.936" style="fill: none;"/>
    <path id="path-1" d="M 194.805 195.527 C 219.413 203.188 234.695 210.084 253.247 221.501 L 255.682 223.124" style="fill: none;"/>
    <path id="path-2" d="M 194.805 235.299 C 283.479 249.728 360.917 240.981 432.63 240.981 L 433.442 240.981" style="fill: none;"/>
    <path id="path-3" d="M 315.747 142.767 C 333.74 169.757 355.52 180.917 368.506 200.397 C 374.24 226.629 388.724 247.913 393.669 272.637 C 393.669 279.099 396.104 283.193 396.104 288.059 C 396.104 298.827 393.148 300.651 385.552 306.728 C 348.478 321.225 314.04 316.468 284.091 316.468 L 278.409 315.657 C 272.534 314.188 266.539 314.186 261.364 311.598" style="fill: none;"/>
    <path id="path-4" d="M 120.13 128.968 C 192.434 129.78 258.292 120.04 324.675 120.04 C 347.654 120.04 364.364 126.533 382.305 126.533 L 383.929 126.533 C 385.011 126.533 386.093 126.533 387.175 126.533" style="fill: none;"/>
    <path id="path-5" d="M 145.292 348.936 L 184.253 348.936 C 213.226 348.936 249.597 354.515 278.409 347.312" style="fill: none;"/>
    <path id="path-6" d="M 136.364 320.527 C 151.556 297.471 176.309 289.223 197.24 281.566 C 225.713 271.149 251.889 264.611 281.656 259.65 C 299.162 259.65 308.98 269.117 316.558 276.696 C 318.918 284.512 322.597 289.941 324.675 296.176 C 331.342 316.175 333.187 312.193 344.968 295.364 C 369.72 277.307 391.601 261.273 408.279 261.273 C 427.718 289.461 436.688 325.984 436.688 356.241 C 430.123 403.751 403.805 405.098 371.753 417.118 C 318.683 426.914 286.334 427.67 250 427.67 C 219.662 420.981 194.332 412.271 180.195 388.709 C 174.954 365.938 175.325 347.7 175.325 331.079 L 173.701 326.209 C 173.701 323.097 170.331 315.41 168.831 312.41" style="fill: none;"/>
    <radialGradient gradientUnits="userSpaceOnUse" cx="300.237" cy="205.256" r="43.128" id="gradient-0" spreadMethod="pad" gradientTransform="matrix(2.306516, 0, 0, 2.306516, -322.76071, -275.837818)">
      <stop offset="0" style="stop-color: rgba(15, 188, 52, 1)"/>
      <stop offset="1" style="stop-color: rgba(7, 94, 26, 1)"/>
    </radialGradient>
    <radialGradient gradientUnits="userSpaceOnUse" cx="233.748" cy="255.24" r="48.793" id="gradient-2" gradientTransform="matrix(2.306516, 0, 0, 2.306516, -322.76071, -275.837818)">
      <stop offset="0" style="stop-color: rgba(72, 46, 46, 1)"/>
      <stop offset="1" style="stop-color: rgba(10, 6, 6, 1)"/>
    </radialGradient>
    <radialGradient gradientUnits="userSpaceOnUse" cx="95.109" cy="191.295" r="84.608" id="gradient-3" gradientTransform="matrix(0.994785, -0.550035, 0.797262, 1.441915, -162.991164, -38.472947)">
      <stop offset="0" style="stop-color: rgb(10, 18, 78);"/>
      <stop offset="1" style="stop-color: rgb(18, 48, 182);"/>
    </radialGradient>
  </defs>
  <ellipse style="stroke: rgb(0, 0, 0); fill: none; visibility: hidden;" cx="249.189" cy="249.099" rx="244.319" ry="244.319"/>
  <path style="fill: url(#gradient-3); fill-rule: evenodd;" d="M 120.068 66.562 C 141.385 30.272 173.543 52.454 158.238 78.648 L 59.186 330.504 C 41.268 377.591 3.026 258.134 21.741 238.538 Z M 7.325 215.341 C -6.184 314.671 48.072 436.297 81.629 345.515 L 167.748 94.644 C 192.709 -10.198 143.188 29.195 93.443 62.545 C 47.903 93.073 13.295 171.449 7.325 215.341 Z"/>
  <path style="fill: url(#gradient-0);" d="M 444.975 121.495 C 436.081 81.916 375.83 27.114 318.386 13.522 C 154.689 -26.192 463.927 275.387 430.082 328.752 C 412.068 373.472 336.121 210.13 323.351 254.289 C 310.181 299.82 427.335 425.823 459.867 372.192 C 508.596 284.076 350.476 145.073 360.583 105.36 C 371.906 21.579 465.149 215.789 444.975 121.495 Z"/>
  <path style="fill: url(#gradient-2);" d="M 122.295 457.828 C 76.043 428.303 128.963 223.876 148.358 183.551 C 197.097 82.206 256.583 407.622 293.564 387.083 C 329.765 366.978 209.701 153.478 247.646 138.868 C 287.248 121.841 368.68 436.436 305.977 482.646 C 246.917 523.988 266.39 289.814 181.869 313.86 C 94.728 347.109 197.475 497.497 122.295 457.828 Z"/>
</svg>